<mxfile host="Electron" modified="2023-11-16T02:55:14.453Z" agent="Mozilla/5.0 (Macintosh; Intel Mac OS X 10_15_7) AppleWebKit/537.36 (KHTML, like Gecko) draw.io/22.0.3 Chrome/114.0.5735.289 Electron/25.8.4 Safari/537.36" etag="4-Z9P3kBe0TzGKzMrf8a" version="22.0.3" type="device">
  <diagram name="Page-1" id="YtLbI5TYKqfj--hZ3J6_">
    <mxGraphModel dx="525" dy="446" grid="1" gridSize="10" guides="1" tooltips="1" connect="1" arrows="1" fold="1" page="1" pageScale="1" pageWidth="2339" pageHeight="3300" math="0" shadow="0">
      <root>
        <mxCell id="0" />
        <mxCell id="1" parent="0" />
        <mxCell id="HAdLW_pzqssdryksnHVs-5" value="0" style="text;html=1;strokeColor=none;fillColor=none;align=center;verticalAlign=middle;whiteSpace=wrap;rounded=0;" vertex="1" parent="1">
          <mxGeometry x="280" y="224" width="10" height="20" as="geometry" />
        </mxCell>
        <mxCell id="HAdLW_pzqssdryksnHVs-18" value="1" style="text;html=1;strokeColor=none;fillColor=none;align=center;verticalAlign=middle;whiteSpace=wrap;rounded=0;" vertex="1" parent="1">
          <mxGeometry x="300" y="224" width="10" height="20" as="geometry" />
        </mxCell>
        <mxCell id="HAdLW_pzqssdryksnHVs-19" value="2" style="text;html=1;strokeColor=none;fillColor=none;align=center;verticalAlign=middle;whiteSpace=wrap;rounded=0;" vertex="1" parent="1">
          <mxGeometry x="320" y="224" width="10" height="20" as="geometry" />
        </mxCell>
        <mxCell id="HAdLW_pzqssdryksnHVs-20" value="3" style="text;html=1;strokeColor=none;fillColor=none;align=center;verticalAlign=middle;whiteSpace=wrap;rounded=0;" vertex="1" parent="1">
          <mxGeometry x="340" y="224" width="10" height="20" as="geometry" />
        </mxCell>
        <mxCell id="HAdLW_pzqssdryksnHVs-21" value="4" style="text;html=1;strokeColor=none;fillColor=none;align=center;verticalAlign=middle;whiteSpace=wrap;rounded=0;" vertex="1" parent="1">
          <mxGeometry x="360" y="224" width="10" height="20" as="geometry" />
        </mxCell>
        <mxCell id="HAdLW_pzqssdryksnHVs-22" value="5" style="text;html=1;strokeColor=none;fillColor=none;align=center;verticalAlign=middle;whiteSpace=wrap;rounded=0;" vertex="1" parent="1">
          <mxGeometry x="380" y="224" width="10" height="20" as="geometry" />
        </mxCell>
        <mxCell id="HAdLW_pzqssdryksnHVs-23" value="6" style="text;html=1;strokeColor=none;fillColor=none;align=center;verticalAlign=middle;whiteSpace=wrap;rounded=0;" vertex="1" parent="1">
          <mxGeometry x="400" y="224" width="10" height="20" as="geometry" />
        </mxCell>
        <mxCell id="HAdLW_pzqssdryksnHVs-24" value="7" style="text;html=1;strokeColor=none;fillColor=none;align=center;verticalAlign=middle;whiteSpace=wrap;rounded=0;" vertex="1" parent="1">
          <mxGeometry x="420" y="224" width="10" height="20" as="geometry" />
        </mxCell>
        <mxCell id="HAdLW_pzqssdryksnHVs-25" value="8" style="text;html=1;strokeColor=none;fillColor=none;align=center;verticalAlign=middle;whiteSpace=wrap;rounded=0;" vertex="1" parent="1">
          <mxGeometry x="440" y="224" width="10" height="20" as="geometry" />
        </mxCell>
        <mxCell id="HAdLW_pzqssdryksnHVs-26" value="9" style="text;html=1;strokeColor=none;fillColor=none;align=center;verticalAlign=middle;whiteSpace=wrap;rounded=0;" vertex="1" parent="1">
          <mxGeometry x="460" y="224" width="10" height="20" as="geometry" />
        </mxCell>
        <mxCell id="HAdLW_pzqssdryksnHVs-27" value="10" style="text;html=1;strokeColor=none;fillColor=none;align=center;verticalAlign=middle;whiteSpace=wrap;rounded=0;" vertex="1" parent="1">
          <mxGeometry x="480" y="224" width="10" height="20" as="geometry" />
        </mxCell>
        <mxCell id="HAdLW_pzqssdryksnHVs-28" value="11" style="text;html=1;strokeColor=none;fillColor=none;align=center;verticalAlign=middle;whiteSpace=wrap;rounded=0;" vertex="1" parent="1">
          <mxGeometry x="500" y="224" width="10" height="20" as="geometry" />
        </mxCell>
        <mxCell id="HAdLW_pzqssdryksnHVs-29" value="12" style="text;html=1;strokeColor=none;fillColor=none;align=center;verticalAlign=middle;whiteSpace=wrap;rounded=0;" vertex="1" parent="1">
          <mxGeometry x="520" y="224" width="10" height="20" as="geometry" />
        </mxCell>
        <mxCell id="HAdLW_pzqssdryksnHVs-30" value="13" style="text;html=1;strokeColor=none;fillColor=none;align=center;verticalAlign=middle;whiteSpace=wrap;rounded=0;" vertex="1" parent="1">
          <mxGeometry x="540" y="224" width="10" height="20" as="geometry" />
        </mxCell>
        <mxCell id="HAdLW_pzqssdryksnHVs-31" value="14" style="text;html=1;strokeColor=none;fillColor=none;align=center;verticalAlign=middle;whiteSpace=wrap;rounded=0;" vertex="1" parent="1">
          <mxGeometry x="560" y="224" width="10" height="20" as="geometry" />
        </mxCell>
        <mxCell id="HAdLW_pzqssdryksnHVs-32" value="15" style="text;html=1;strokeColor=none;fillColor=none;align=center;verticalAlign=middle;whiteSpace=wrap;rounded=0;" vertex="1" parent="1">
          <mxGeometry x="580" y="224" width="10" height="20" as="geometry" />
        </mxCell>
        <mxCell id="HAdLW_pzqssdryksnHVs-33" value="16" style="text;html=1;strokeColor=none;fillColor=none;align=center;verticalAlign=middle;whiteSpace=wrap;rounded=0;" vertex="1" parent="1">
          <mxGeometry x="600" y="224" width="10" height="20" as="geometry" />
        </mxCell>
        <mxCell id="HAdLW_pzqssdryksnHVs-34" value="17" style="text;html=1;strokeColor=none;fillColor=none;align=center;verticalAlign=middle;whiteSpace=wrap;rounded=0;" vertex="1" parent="1">
          <mxGeometry x="620" y="224" width="10" height="20" as="geometry" />
        </mxCell>
        <mxCell id="HAdLW_pzqssdryksnHVs-35" value="18" style="text;html=1;strokeColor=none;fillColor=none;align=center;verticalAlign=middle;whiteSpace=wrap;rounded=0;" vertex="1" parent="1">
          <mxGeometry x="640" y="224" width="10" height="20" as="geometry" />
        </mxCell>
        <mxCell id="HAdLW_pzqssdryksnHVs-36" value="19" style="text;html=1;strokeColor=none;fillColor=none;align=center;verticalAlign=middle;whiteSpace=wrap;rounded=0;" vertex="1" parent="1">
          <mxGeometry x="660" y="224" width="10" height="20" as="geometry" />
        </mxCell>
        <mxCell id="HAdLW_pzqssdryksnHVs-37" value="20" style="text;html=1;strokeColor=none;fillColor=none;align=center;verticalAlign=middle;whiteSpace=wrap;rounded=0;" vertex="1" parent="1">
          <mxGeometry x="680" y="224" width="10" height="20" as="geometry" />
        </mxCell>
        <mxCell id="HAdLW_pzqssdryksnHVs-38" value="21" style="text;html=1;strokeColor=none;fillColor=none;align=center;verticalAlign=middle;whiteSpace=wrap;rounded=0;" vertex="1" parent="1">
          <mxGeometry x="700" y="224" width="10" height="20" as="geometry" />
        </mxCell>
        <mxCell id="HAdLW_pzqssdryksnHVs-39" value="22" style="text;html=1;strokeColor=none;fillColor=none;align=center;verticalAlign=middle;whiteSpace=wrap;rounded=0;" vertex="1" parent="1">
          <mxGeometry x="720" y="224" width="10" height="20" as="geometry" />
        </mxCell>
        <mxCell id="HAdLW_pzqssdryksnHVs-40" value="23" style="text;html=1;strokeColor=none;fillColor=none;align=center;verticalAlign=middle;whiteSpace=wrap;rounded=0;" vertex="1" parent="1">
          <mxGeometry x="740" y="224" width="10" height="20" as="geometry" />
        </mxCell>
        <mxCell id="HAdLW_pzqssdryksnHVs-41" value="24" style="text;html=1;strokeColor=none;fillColor=none;align=center;verticalAlign=middle;whiteSpace=wrap;rounded=0;" vertex="1" parent="1">
          <mxGeometry x="760" y="224" width="10" height="20" as="geometry" />
        </mxCell>
        <mxCell id="HAdLW_pzqssdryksnHVs-42" value="25" style="text;html=1;strokeColor=none;fillColor=none;align=center;verticalAlign=middle;whiteSpace=wrap;rounded=0;" vertex="1" parent="1">
          <mxGeometry x="780" y="224" width="10" height="20" as="geometry" />
        </mxCell>
        <mxCell id="HAdLW_pzqssdryksnHVs-43" value="26" style="text;html=1;strokeColor=none;fillColor=none;align=center;verticalAlign=middle;whiteSpace=wrap;rounded=0;" vertex="1" parent="1">
          <mxGeometry x="800" y="224" width="10" height="20" as="geometry" />
        </mxCell>
        <mxCell id="HAdLW_pzqssdryksnHVs-44" value="27" style="text;html=1;strokeColor=none;fillColor=none;align=center;verticalAlign=middle;whiteSpace=wrap;rounded=0;" vertex="1" parent="1">
          <mxGeometry x="820" y="224" width="10" height="20" as="geometry" />
        </mxCell>
        <mxCell id="HAdLW_pzqssdryksnHVs-47" value="28" style="text;html=1;strokeColor=none;fillColor=none;align=center;verticalAlign=middle;whiteSpace=wrap;rounded=0;" vertex="1" parent="1">
          <mxGeometry x="840" y="224" width="10" height="20" as="geometry" />
        </mxCell>
        <mxCell id="HAdLW_pzqssdryksnHVs-48" value="29" style="text;html=1;strokeColor=none;fillColor=none;align=center;verticalAlign=middle;whiteSpace=wrap;rounded=0;" vertex="1" parent="1">
          <mxGeometry x="860" y="224" width="10" height="20" as="geometry" />
        </mxCell>
        <mxCell id="HAdLW_pzqssdryksnHVs-49" value="30" style="text;html=1;strokeColor=none;fillColor=none;align=center;verticalAlign=middle;whiteSpace=wrap;rounded=0;" vertex="1" parent="1">
          <mxGeometry x="880" y="224" width="10" height="20" as="geometry" />
        </mxCell>
        <mxCell id="HAdLW_pzqssdryksnHVs-50" value="31" style="text;html=1;strokeColor=none;fillColor=none;align=center;verticalAlign=middle;whiteSpace=wrap;rounded=0;" vertex="1" parent="1">
          <mxGeometry x="900" y="224" width="10" height="20" as="geometry" />
        </mxCell>
        <mxCell id="HAdLW_pzqssdryksnHVs-51" value="32" style="text;html=1;strokeColor=none;fillColor=none;align=center;verticalAlign=middle;whiteSpace=wrap;rounded=0;" vertex="1" parent="1">
          <mxGeometry x="920" y="224" width="10" height="20" as="geometry" />
        </mxCell>
        <mxCell id="HAdLW_pzqssdryksnHVs-52" value="33" style="text;html=1;strokeColor=none;fillColor=none;align=center;verticalAlign=middle;whiteSpace=wrap;rounded=0;" vertex="1" parent="1">
          <mxGeometry x="940" y="224" width="10" height="20" as="geometry" />
        </mxCell>
        <mxCell id="HAdLW_pzqssdryksnHVs-53" value="34" style="text;html=1;strokeColor=none;fillColor=none;align=center;verticalAlign=middle;whiteSpace=wrap;rounded=0;" vertex="1" parent="1">
          <mxGeometry x="960" y="224" width="10" height="20" as="geometry" />
        </mxCell>
        <mxCell id="HAdLW_pzqssdryksnHVs-54" value="35" style="text;html=1;strokeColor=none;fillColor=none;align=center;verticalAlign=middle;whiteSpace=wrap;rounded=0;" vertex="1" parent="1">
          <mxGeometry x="980" y="224" width="10" height="20" as="geometry" />
        </mxCell>
        <mxCell id="HAdLW_pzqssdryksnHVs-55" value="36" style="text;html=1;strokeColor=none;fillColor=none;align=center;verticalAlign=middle;whiteSpace=wrap;rounded=0;" vertex="1" parent="1">
          <mxGeometry x="1000" y="224" width="10" height="20" as="geometry" />
        </mxCell>
        <mxCell id="HAdLW_pzqssdryksnHVs-56" value="37" style="text;html=1;strokeColor=none;fillColor=none;align=center;verticalAlign=middle;whiteSpace=wrap;rounded=0;" vertex="1" parent="1">
          <mxGeometry x="1020" y="224" width="10" height="20" as="geometry" />
        </mxCell>
        <mxCell id="HAdLW_pzqssdryksnHVs-57" value="38" style="text;html=1;strokeColor=none;fillColor=none;align=center;verticalAlign=middle;whiteSpace=wrap;rounded=0;" vertex="1" parent="1">
          <mxGeometry x="1040" y="224" width="10" height="20" as="geometry" />
        </mxCell>
        <mxCell id="HAdLW_pzqssdryksnHVs-58" value="39" style="text;html=1;strokeColor=none;fillColor=none;align=center;verticalAlign=middle;whiteSpace=wrap;rounded=0;" vertex="1" parent="1">
          <mxGeometry x="1060" y="224" width="10" height="20" as="geometry" />
        </mxCell>
        <mxCell id="HAdLW_pzqssdryksnHVs-59" value="40" style="text;html=1;strokeColor=none;fillColor=none;align=center;verticalAlign=middle;whiteSpace=wrap;rounded=0;" vertex="1" parent="1">
          <mxGeometry x="1080" y="224" width="10" height="20" as="geometry" />
        </mxCell>
        <mxCell id="HAdLW_pzqssdryksnHVs-60" value="41" style="text;html=1;strokeColor=none;fillColor=none;align=center;verticalAlign=middle;whiteSpace=wrap;rounded=0;" vertex="1" parent="1">
          <mxGeometry x="1100" y="224" width="10" height="20" as="geometry" />
        </mxCell>
        <mxCell id="HAdLW_pzqssdryksnHVs-61" value="42" style="text;html=1;strokeColor=none;fillColor=none;align=center;verticalAlign=middle;whiteSpace=wrap;rounded=0;" vertex="1" parent="1">
          <mxGeometry x="1120" y="224" width="10" height="20" as="geometry" />
        </mxCell>
        <mxCell id="HAdLW_pzqssdryksnHVs-62" value="43" style="text;html=1;strokeColor=none;fillColor=none;align=center;verticalAlign=middle;whiteSpace=wrap;rounded=0;" vertex="1" parent="1">
          <mxGeometry x="1140" y="224" width="10" height="20" as="geometry" />
        </mxCell>
        <mxCell id="HAdLW_pzqssdryksnHVs-63" value="44" style="text;html=1;strokeColor=none;fillColor=none;align=center;verticalAlign=middle;whiteSpace=wrap;rounded=0;" vertex="1" parent="1">
          <mxGeometry x="1159.5" y="224" width="10" height="20" as="geometry" />
        </mxCell>
        <mxCell id="HAdLW_pzqssdryksnHVs-64" value="45" style="text;html=1;strokeColor=none;fillColor=none;align=center;verticalAlign=middle;whiteSpace=wrap;rounded=0;" vertex="1" parent="1">
          <mxGeometry x="1180" y="224" width="10" height="20" as="geometry" />
        </mxCell>
        <mxCell id="HAdLW_pzqssdryksnHVs-65" value="46" style="text;html=1;strokeColor=none;fillColor=none;align=center;verticalAlign=middle;whiteSpace=wrap;rounded=0;" vertex="1" parent="1">
          <mxGeometry x="1200" y="224" width="10" height="20" as="geometry" />
        </mxCell>
        <mxCell id="HAdLW_pzqssdryksnHVs-66" value="47" style="text;html=1;strokeColor=none;fillColor=none;align=center;verticalAlign=middle;whiteSpace=wrap;rounded=0;" vertex="1" parent="1">
          <mxGeometry x="1220" y="224" width="10" height="20" as="geometry" />
        </mxCell>
        <mxCell id="HAdLW_pzqssdryksnHVs-67" value="48" style="text;html=1;strokeColor=none;fillColor=none;align=center;verticalAlign=middle;whiteSpace=wrap;rounded=0;" vertex="1" parent="1">
          <mxGeometry x="1240" y="224" width="10" height="20" as="geometry" />
        </mxCell>
        <mxCell id="HAdLW_pzqssdryksnHVs-68" value="49" style="text;html=1;strokeColor=none;fillColor=none;align=center;verticalAlign=middle;whiteSpace=wrap;rounded=0;" vertex="1" parent="1">
          <mxGeometry x="1260" y="224" width="10" height="20" as="geometry" />
        </mxCell>
        <mxCell id="HAdLW_pzqssdryksnHVs-69" value="50" style="text;html=1;strokeColor=none;fillColor=none;align=center;verticalAlign=middle;whiteSpace=wrap;rounded=0;" vertex="1" parent="1">
          <mxGeometry x="1280" y="224" width="10" height="20" as="geometry" />
        </mxCell>
        <mxCell id="HAdLW_pzqssdryksnHVs-70" value="2" style="text;html=1;strokeColor=none;fillColor=none;align=center;verticalAlign=middle;whiteSpace=wrap;rounded=0;" vertex="1" parent="1">
          <mxGeometry x="260" y="244" width="10" height="20" as="geometry" />
        </mxCell>
        <mxCell id="HAdLW_pzqssdryksnHVs-71" value="3" style="text;html=1;strokeColor=none;fillColor=none;align=center;verticalAlign=middle;whiteSpace=wrap;rounded=0;" vertex="1" parent="1">
          <mxGeometry x="260" y="264" width="10" height="20" as="geometry" />
        </mxCell>
        <mxCell id="HAdLW_pzqssdryksnHVs-72" value="5" style="text;html=1;strokeColor=none;fillColor=none;align=center;verticalAlign=middle;whiteSpace=wrap;rounded=0;" vertex="1" parent="1">
          <mxGeometry x="260" y="284" width="10" height="20" as="geometry" />
        </mxCell>
        <mxCell id="HAdLW_pzqssdryksnHVs-73" value="7" style="text;html=1;strokeColor=none;fillColor=none;align=center;verticalAlign=middle;whiteSpace=wrap;rounded=0;" vertex="1" parent="1">
          <mxGeometry x="260" y="304" width="10" height="20" as="geometry" />
        </mxCell>
        <mxCell id="HAdLW_pzqssdryksnHVs-75" value="2" style="text;html=1;strokeColor=none;fillColor=none;align=center;verticalAlign=middle;whiteSpace=wrap;rounded=0;" vertex="1" parent="1">
          <mxGeometry x="320" y="244" width="10" height="20" as="geometry" />
        </mxCell>
        <mxCell id="HAdLW_pzqssdryksnHVs-76" value="4" style="text;html=1;strokeColor=none;fillColor=none;align=center;verticalAlign=middle;whiteSpace=wrap;rounded=0;" vertex="1" parent="1">
          <mxGeometry x="360" y="244" width="10" height="20" as="geometry" />
        </mxCell>
        <mxCell id="HAdLW_pzqssdryksnHVs-78" value="6" style="text;html=1;strokeColor=none;fillColor=none;align=center;verticalAlign=middle;whiteSpace=wrap;rounded=0;" vertex="1" parent="1">
          <mxGeometry x="400" y="244" width="10" height="20" as="geometry" />
        </mxCell>
        <mxCell id="HAdLW_pzqssdryksnHVs-79" value="8" style="text;html=1;strokeColor=none;fillColor=none;align=center;verticalAlign=middle;whiteSpace=wrap;rounded=0;" vertex="1" parent="1">
          <mxGeometry x="440" y="244" width="10" height="20" as="geometry" />
        </mxCell>
        <mxCell id="HAdLW_pzqssdryksnHVs-80" value="10" style="text;html=1;strokeColor=none;fillColor=none;align=center;verticalAlign=middle;whiteSpace=wrap;rounded=0;" vertex="1" parent="1">
          <mxGeometry x="480" y="244" width="10" height="20" as="geometry" />
        </mxCell>
        <mxCell id="HAdLW_pzqssdryksnHVs-81" value="12" style="text;html=1;strokeColor=none;fillColor=none;align=center;verticalAlign=middle;whiteSpace=wrap;rounded=0;" vertex="1" parent="1">
          <mxGeometry x="520" y="244" width="10" height="20" as="geometry" />
        </mxCell>
        <mxCell id="HAdLW_pzqssdryksnHVs-82" value="14" style="text;html=1;strokeColor=none;fillColor=none;align=center;verticalAlign=middle;whiteSpace=wrap;rounded=0;" vertex="1" parent="1">
          <mxGeometry x="560" y="244" width="10" height="20" as="geometry" />
        </mxCell>
        <mxCell id="HAdLW_pzqssdryksnHVs-83" value="16" style="text;html=1;strokeColor=none;fillColor=none;align=center;verticalAlign=middle;whiteSpace=wrap;rounded=0;" vertex="1" parent="1">
          <mxGeometry x="600" y="244" width="10" height="20" as="geometry" />
        </mxCell>
        <mxCell id="HAdLW_pzqssdryksnHVs-84" value="18" style="text;html=1;strokeColor=none;fillColor=none;align=center;verticalAlign=middle;whiteSpace=wrap;rounded=0;" vertex="1" parent="1">
          <mxGeometry x="640" y="244" width="10" height="20" as="geometry" />
        </mxCell>
        <mxCell id="HAdLW_pzqssdryksnHVs-85" value="20" style="text;html=1;strokeColor=none;fillColor=none;align=center;verticalAlign=middle;whiteSpace=wrap;rounded=0;" vertex="1" parent="1">
          <mxGeometry x="680" y="244" width="10" height="20" as="geometry" />
        </mxCell>
        <mxCell id="HAdLW_pzqssdryksnHVs-86" value="22" style="text;html=1;strokeColor=none;fillColor=none;align=center;verticalAlign=middle;whiteSpace=wrap;rounded=0;" vertex="1" parent="1">
          <mxGeometry x="720" y="244" width="10" height="20" as="geometry" />
        </mxCell>
        <mxCell id="HAdLW_pzqssdryksnHVs-87" value="24" style="text;html=1;strokeColor=none;fillColor=none;align=center;verticalAlign=middle;whiteSpace=wrap;rounded=0;" vertex="1" parent="1">
          <mxGeometry x="760" y="244" width="10" height="20" as="geometry" />
        </mxCell>
        <mxCell id="HAdLW_pzqssdryksnHVs-88" value="26" style="text;html=1;strokeColor=none;fillColor=none;align=center;verticalAlign=middle;whiteSpace=wrap;rounded=0;" vertex="1" parent="1">
          <mxGeometry x="800" y="244" width="10" height="20" as="geometry" />
        </mxCell>
        <mxCell id="HAdLW_pzqssdryksnHVs-89" value="28" style="text;html=1;strokeColor=none;fillColor=none;align=center;verticalAlign=middle;whiteSpace=wrap;rounded=0;" vertex="1" parent="1">
          <mxGeometry x="840" y="244" width="10" height="20" as="geometry" />
        </mxCell>
        <mxCell id="HAdLW_pzqssdryksnHVs-90" value="30" style="text;html=1;strokeColor=none;fillColor=none;align=center;verticalAlign=middle;whiteSpace=wrap;rounded=0;" vertex="1" parent="1">
          <mxGeometry x="880" y="244" width="10" height="20" as="geometry" />
        </mxCell>
        <mxCell id="HAdLW_pzqssdryksnHVs-92" value="32" style="text;html=1;strokeColor=none;fillColor=none;align=center;verticalAlign=middle;whiteSpace=wrap;rounded=0;" vertex="1" parent="1">
          <mxGeometry x="920" y="244" width="10" height="20" as="geometry" />
        </mxCell>
        <mxCell id="HAdLW_pzqssdryksnHVs-93" value="34" style="text;html=1;strokeColor=none;fillColor=none;align=center;verticalAlign=middle;whiteSpace=wrap;rounded=0;" vertex="1" parent="1">
          <mxGeometry x="960" y="244" width="10" height="20" as="geometry" />
        </mxCell>
        <mxCell id="HAdLW_pzqssdryksnHVs-94" value="36" style="text;html=1;strokeColor=none;fillColor=none;align=center;verticalAlign=middle;whiteSpace=wrap;rounded=0;" vertex="1" parent="1">
          <mxGeometry x="1000" y="244" width="10" height="20" as="geometry" />
        </mxCell>
        <mxCell id="HAdLW_pzqssdryksnHVs-95" value="38" style="text;html=1;strokeColor=none;fillColor=none;align=center;verticalAlign=middle;whiteSpace=wrap;rounded=0;" vertex="1" parent="1">
          <mxGeometry x="1040" y="244" width="10" height="20" as="geometry" />
        </mxCell>
        <mxCell id="HAdLW_pzqssdryksnHVs-96" value="40" style="text;html=1;strokeColor=none;fillColor=none;align=center;verticalAlign=middle;whiteSpace=wrap;rounded=0;" vertex="1" parent="1">
          <mxGeometry x="1080" y="244" width="10" height="20" as="geometry" />
        </mxCell>
        <mxCell id="HAdLW_pzqssdryksnHVs-97" value="42" style="text;html=1;strokeColor=none;fillColor=none;align=center;verticalAlign=middle;whiteSpace=wrap;rounded=0;" vertex="1" parent="1">
          <mxGeometry x="1120" y="244" width="10" height="20" as="geometry" />
        </mxCell>
        <mxCell id="HAdLW_pzqssdryksnHVs-98" value="44" style="text;html=1;strokeColor=none;fillColor=none;align=center;verticalAlign=middle;whiteSpace=wrap;rounded=0;" vertex="1" parent="1">
          <mxGeometry x="1160" y="244" width="10" height="20" as="geometry" />
        </mxCell>
        <mxCell id="HAdLW_pzqssdryksnHVs-99" value="46" style="text;html=1;strokeColor=none;fillColor=none;align=center;verticalAlign=middle;whiteSpace=wrap;rounded=0;" vertex="1" parent="1">
          <mxGeometry x="1200" y="244" width="10" height="20" as="geometry" />
        </mxCell>
        <mxCell id="HAdLW_pzqssdryksnHVs-100" value="48" style="text;html=1;strokeColor=none;fillColor=none;align=center;verticalAlign=middle;whiteSpace=wrap;rounded=0;" vertex="1" parent="1">
          <mxGeometry x="1240" y="244" width="10" height="20" as="geometry" />
        </mxCell>
        <mxCell id="HAdLW_pzqssdryksnHVs-101" value="50" style="text;html=1;strokeColor=none;fillColor=none;align=center;verticalAlign=middle;whiteSpace=wrap;rounded=0;" vertex="1" parent="1">
          <mxGeometry x="1280" y="244" width="10" height="20" as="geometry" />
        </mxCell>
        <mxCell id="HAdLW_pzqssdryksnHVs-102" value="3" style="text;html=1;strokeColor=none;fillColor=none;align=center;verticalAlign=middle;whiteSpace=wrap;rounded=0;" vertex="1" parent="1">
          <mxGeometry x="340" y="264" width="10" height="20" as="geometry" />
        </mxCell>
        <mxCell id="HAdLW_pzqssdryksnHVs-103" value="6" style="text;html=1;strokeColor=none;fillColor=none;align=center;verticalAlign=middle;whiteSpace=wrap;rounded=0;" vertex="1" parent="1">
          <mxGeometry x="400" y="264" width="10" height="20" as="geometry" />
        </mxCell>
        <mxCell id="HAdLW_pzqssdryksnHVs-104" value="9" style="text;html=1;strokeColor=none;fillColor=none;align=center;verticalAlign=middle;whiteSpace=wrap;rounded=0;" vertex="1" parent="1">
          <mxGeometry x="460" y="264" width="10" height="20" as="geometry" />
        </mxCell>
        <mxCell id="HAdLW_pzqssdryksnHVs-106" value="12" style="text;html=1;strokeColor=none;fillColor=none;align=center;verticalAlign=middle;whiteSpace=wrap;rounded=0;" vertex="1" parent="1">
          <mxGeometry x="520" y="264" width="10" height="20" as="geometry" />
        </mxCell>
        <mxCell id="HAdLW_pzqssdryksnHVs-107" value="15" style="text;html=1;strokeColor=none;fillColor=none;align=center;verticalAlign=middle;whiteSpace=wrap;rounded=0;" vertex="1" parent="1">
          <mxGeometry x="580" y="264" width="10" height="20" as="geometry" />
        </mxCell>
        <mxCell id="HAdLW_pzqssdryksnHVs-108" value="18" style="text;html=1;strokeColor=none;fillColor=none;align=center;verticalAlign=middle;whiteSpace=wrap;rounded=0;" vertex="1" parent="1">
          <mxGeometry x="640" y="264" width="10" height="20" as="geometry" />
        </mxCell>
        <mxCell id="HAdLW_pzqssdryksnHVs-109" value="21" style="text;html=1;strokeColor=none;fillColor=none;align=center;verticalAlign=middle;whiteSpace=wrap;rounded=0;" vertex="1" parent="1">
          <mxGeometry x="700" y="264" width="10" height="20" as="geometry" />
        </mxCell>
        <mxCell id="HAdLW_pzqssdryksnHVs-110" value="24" style="text;html=1;strokeColor=none;fillColor=none;align=center;verticalAlign=middle;whiteSpace=wrap;rounded=0;" vertex="1" parent="1">
          <mxGeometry x="760" y="264" width="10" height="20" as="geometry" />
        </mxCell>
        <mxCell id="HAdLW_pzqssdryksnHVs-111" value="27" style="text;html=1;strokeColor=none;fillColor=none;align=center;verticalAlign=middle;whiteSpace=wrap;rounded=0;" vertex="1" parent="1">
          <mxGeometry x="820" y="264" width="10" height="20" as="geometry" />
        </mxCell>
        <mxCell id="HAdLW_pzqssdryksnHVs-112" value="30" style="text;html=1;strokeColor=none;fillColor=none;align=center;verticalAlign=middle;whiteSpace=wrap;rounded=0;" vertex="1" parent="1">
          <mxGeometry x="880" y="264" width="10" height="20" as="geometry" />
        </mxCell>
        <mxCell id="HAdLW_pzqssdryksnHVs-113" value="33" style="text;html=1;strokeColor=none;fillColor=none;align=center;verticalAlign=middle;whiteSpace=wrap;rounded=0;" vertex="1" parent="1">
          <mxGeometry x="940" y="264" width="10" height="20" as="geometry" />
        </mxCell>
        <mxCell id="HAdLW_pzqssdryksnHVs-114" value="36" style="text;html=1;strokeColor=none;fillColor=none;align=center;verticalAlign=middle;whiteSpace=wrap;rounded=0;" vertex="1" parent="1">
          <mxGeometry x="1000" y="264" width="10" height="20" as="geometry" />
        </mxCell>
        <mxCell id="HAdLW_pzqssdryksnHVs-115" value="39" style="text;html=1;strokeColor=none;fillColor=none;align=center;verticalAlign=middle;whiteSpace=wrap;rounded=0;" vertex="1" parent="1">
          <mxGeometry x="1060" y="264" width="10" height="20" as="geometry" />
        </mxCell>
        <mxCell id="HAdLW_pzqssdryksnHVs-116" value="42" style="text;html=1;strokeColor=none;fillColor=none;align=center;verticalAlign=middle;whiteSpace=wrap;rounded=0;" vertex="1" parent="1">
          <mxGeometry x="1120" y="264" width="10" height="20" as="geometry" />
        </mxCell>
        <mxCell id="HAdLW_pzqssdryksnHVs-117" value="45" style="text;html=1;strokeColor=none;fillColor=none;align=center;verticalAlign=middle;whiteSpace=wrap;rounded=0;" vertex="1" parent="1">
          <mxGeometry x="1180" y="264" width="10" height="20" as="geometry" />
        </mxCell>
        <mxCell id="HAdLW_pzqssdryksnHVs-118" value="48" style="text;html=1;strokeColor=none;fillColor=none;align=center;verticalAlign=middle;whiteSpace=wrap;rounded=0;" vertex="1" parent="1">
          <mxGeometry x="1240" y="264" width="10" height="20" as="geometry" />
        </mxCell>
        <mxCell id="HAdLW_pzqssdryksnHVs-119" value="5" style="text;html=1;strokeColor=none;fillColor=none;align=center;verticalAlign=middle;whiteSpace=wrap;rounded=0;" vertex="1" parent="1">
          <mxGeometry x="380" y="284" width="10" height="20" as="geometry" />
        </mxCell>
        <mxCell id="HAdLW_pzqssdryksnHVs-120" value="10" style="text;html=1;strokeColor=none;fillColor=none;align=center;verticalAlign=middle;whiteSpace=wrap;rounded=0;" vertex="1" parent="1">
          <mxGeometry x="480" y="284" width="10" height="20" as="geometry" />
        </mxCell>
        <mxCell id="HAdLW_pzqssdryksnHVs-121" value="15" style="text;html=1;strokeColor=none;fillColor=none;align=center;verticalAlign=middle;whiteSpace=wrap;rounded=0;" vertex="1" parent="1">
          <mxGeometry x="580" y="284" width="10" height="20" as="geometry" />
        </mxCell>
        <mxCell id="HAdLW_pzqssdryksnHVs-122" value="20" style="text;html=1;strokeColor=none;fillColor=none;align=center;verticalAlign=middle;whiteSpace=wrap;rounded=0;" vertex="1" parent="1">
          <mxGeometry x="680" y="284" width="10" height="20" as="geometry" />
        </mxCell>
        <mxCell id="HAdLW_pzqssdryksnHVs-123" value="25" style="text;html=1;strokeColor=none;fillColor=none;align=center;verticalAlign=middle;whiteSpace=wrap;rounded=0;" vertex="1" parent="1">
          <mxGeometry x="780" y="284" width="10" height="20" as="geometry" />
        </mxCell>
        <mxCell id="HAdLW_pzqssdryksnHVs-124" value="30" style="text;html=1;strokeColor=none;fillColor=none;align=center;verticalAlign=middle;whiteSpace=wrap;rounded=0;" vertex="1" parent="1">
          <mxGeometry x="880" y="284" width="10" height="20" as="geometry" />
        </mxCell>
        <mxCell id="HAdLW_pzqssdryksnHVs-125" value="40" style="text;html=1;strokeColor=none;fillColor=none;align=center;verticalAlign=middle;whiteSpace=wrap;rounded=0;" vertex="1" parent="1">
          <mxGeometry x="1080" y="284" width="10" height="20" as="geometry" />
        </mxCell>
        <mxCell id="HAdLW_pzqssdryksnHVs-126" value="35" style="text;html=1;strokeColor=none;fillColor=none;align=center;verticalAlign=middle;whiteSpace=wrap;rounded=0;" vertex="1" parent="1">
          <mxGeometry x="980" y="284" width="10" height="20" as="geometry" />
        </mxCell>
        <mxCell id="HAdLW_pzqssdryksnHVs-127" value="45" style="text;html=1;strokeColor=none;fillColor=none;align=center;verticalAlign=middle;whiteSpace=wrap;rounded=0;" vertex="1" parent="1">
          <mxGeometry x="1180" y="284" width="10" height="20" as="geometry" />
        </mxCell>
        <mxCell id="HAdLW_pzqssdryksnHVs-128" value="50" style="text;html=1;strokeColor=none;fillColor=none;align=center;verticalAlign=middle;whiteSpace=wrap;rounded=0;" vertex="1" parent="1">
          <mxGeometry x="1280" y="284" width="10" height="20" as="geometry" />
        </mxCell>
        <mxCell id="HAdLW_pzqssdryksnHVs-129" value="7" style="text;html=1;strokeColor=none;fillColor=none;align=center;verticalAlign=middle;whiteSpace=wrap;rounded=0;" vertex="1" parent="1">
          <mxGeometry x="420" y="304" width="10" height="20" as="geometry" />
        </mxCell>
        <mxCell id="HAdLW_pzqssdryksnHVs-130" value="14" style="text;html=1;strokeColor=none;fillColor=none;align=center;verticalAlign=middle;whiteSpace=wrap;rounded=0;" vertex="1" parent="1">
          <mxGeometry x="560" y="304" width="10" height="20" as="geometry" />
        </mxCell>
        <mxCell id="HAdLW_pzqssdryksnHVs-131" value="21" style="text;html=1;strokeColor=none;fillColor=none;align=center;verticalAlign=middle;whiteSpace=wrap;rounded=0;" vertex="1" parent="1">
          <mxGeometry x="700" y="304" width="10" height="20" as="geometry" />
        </mxCell>
        <mxCell id="HAdLW_pzqssdryksnHVs-132" value="28" style="text;html=1;strokeColor=none;fillColor=none;align=center;verticalAlign=middle;whiteSpace=wrap;rounded=0;" vertex="1" parent="1">
          <mxGeometry x="840" y="304" width="10" height="20" as="geometry" />
        </mxCell>
        <mxCell id="HAdLW_pzqssdryksnHVs-133" value="35" style="text;html=1;strokeColor=none;fillColor=none;align=center;verticalAlign=middle;whiteSpace=wrap;rounded=0;" vertex="1" parent="1">
          <mxGeometry x="980" y="304" width="10" height="20" as="geometry" />
        </mxCell>
        <mxCell id="HAdLW_pzqssdryksnHVs-134" value="42" style="text;html=1;strokeColor=none;fillColor=none;align=center;verticalAlign=middle;whiteSpace=wrap;rounded=0;" vertex="1" parent="1">
          <mxGeometry x="1120" y="304" width="10" height="20" as="geometry" />
        </mxCell>
        <mxCell id="HAdLW_pzqssdryksnHVs-135" value="49" style="text;html=1;strokeColor=none;fillColor=none;align=center;verticalAlign=middle;whiteSpace=wrap;rounded=0;" vertex="1" parent="1">
          <mxGeometry x="1260" y="304" width="10" height="20" as="geometry" />
        </mxCell>
      </root>
    </mxGraphModel>
  </diagram>
</mxfile>
